<?xml version="1.0" encoding="iso-8859-1"?>
<!-- Generator: Adobe Illustrator 19.0.0, SVG Export Plug-In . SVG Version: 6.00 Build 0)  -->
<svg version="1.1" id="Layer_1" xmlns="http://www.w3.org/2000/svg" xmlns:xlink="http://www.w3.org/1999/xlink" x="0px" y="0px"
	 viewBox="0 0 504 504" style="enable-background:new 0 0 504 504;" xml:space="preserve">
<circle style="fill:#FD8469;" cx="252" cy="252" r="252"/>
<rect x="94.5" y="104.3" style="fill:#324A5E;" width="280" height="260.7"/>
<g>
	<rect x="119" y="162.8" style="fill:#FFFFFF;" width="231" height="177.9"/>
	<rect x="119" y="125.1" style="fill:#FFFFFF;" width="28.9" height="16.9"/>
</g>
<rect x="166.7" y="125.1" style="fill:#F9B54C;" width="28.9" height="16.9"/>
<rect x="214.4" y="125.1" style="fill:#54C0EB;" width="28.9" height="16.9"/>
<rect x="135.6" y="233.5" style="fill:#F1543F;" width="197.8" height="36.5"/>
<rect x="135.6" y="286.8" style="fill:#54C0EB;" width="90.1" height="36.5"/>
<g>
	<rect x="243.2" y="286.8" style="fill:#ACB3BA;" width="90.1" height="36.5"/>
	<rect x="135.6" y="180.2" style="fill:#ACB3BA;" width="90.1" height="36.5"/>
</g>
<rect x="243.2" y="180.2" style="fill:#54C0EB;" width="90.1" height="36.5"/>
<path style="fill:#E6E9EE;" d="M304,244.3c-5.4,0-9.8,4.4-9.8,9.8v155.5c0,5.4,4.4,9.8,9.8,9.8h95.7c5.4,0,9.8-4.4,9.8-9.8V254
	c0-5.4-4.4-9.8-9.8-9.8H304V244.3z"/>
<rect x="308.1" y="272.1" style="fill:#84DBFF;" width="87.4" height="108.4"/>
<path style="fill:#2B3B4E;" d="M365.9,260.9h-28.2c-0.5,0-0.9-0.4-0.9-0.9v-5.5c0-0.5,0.4-0.9,0.9-0.9h28.2c0.5,0,0.9,0.4,0.9,0.9
	v5.5C366.9,260.4,366.4,260.9,365.9,260.9z"/>
<ellipse style="fill:#324A5E;" cx="351.8" cy="399.1" rx="11.4" ry="11.3"/>
<g>
</g>
<g>
</g>
<g>
</g>
<g>
</g>
<g>
</g>
<g>
</g>
<g>
</g>
<g>
</g>
<g>
</g>
<g>
</g>
<g>
</g>
<g>
</g>
<g>
</g>
<g>
</g>
<g>
</g>
</svg>
